# xmcd CD database file generated by MAGIX-FreeDB-MP3_deluxe_17 v3.0beta1
#
# Track frame offsets:
#	150
#	13242
#	28811
#	41084
#	53259
#	67235
#	91254
#	105325
#	117720
#	132902
#	146669
#	167052
#	194870
#	207626
#	222317
#	248332
#	263126
#	273731
#	288124
#	302620
#
# Disc length: 4436
#
# Revision: 2
# Processed by: cddbd v1.5.2PL0 Copyright (c) Steve Scherf et al.
# Submitted via: MAGIX-FreeDB-MP3_deluxe_17 v3.0beta1
#
DISCID=36115214
DTITLE=Various Artist - The Best Of Dixieland Jazz - Vol. 10
DYEAR=2003
DGENRE=Jazz
TTITLE0=Louis Armstron - Mahagony Hall Stomp
TTITLE1=Eddie Condon - When Your Lover Has Gone
TTITLE2=Muggsy Spanier - Cherry
TTITLE3=Edmond Hall - It's Only Shanty In Old Shanty Town
TTITLE4=Louis Armstrong - Where The Blues Were Born in New Orleans
TTITLE5=Kid Ory - Maple Leaf Rag
TTITLE6=Bill Coleman - Linge A While
TTITLE7=Buster Bailey - St. Louis Blues
TTITLE8=Wild Bill Davison - Jazz Me Blues
TTITLE9=Muggsy Spanier - Darktown Strutter's Ball
TTITLE10=Edmond Hall - Walkin' The Dog
TTITLE11=Kid Ory - That's A Plenty
TTITLE12=Sidney Bechet And His New Orleans Feetwarmers - Jelly Roll blues
TTITLE13=Jack Teagarden - Aunt Hagar's Blues
TTITLE14=Red Nichols And His Five Pennies - Battle Hymn Of The Republic
TTITLE15=Sidney Bechet - At A Georgia Camp Meeting
TTITLE16=Bobby Hackett Quintet - Struttin'  With Some Barbecue
TTITLE17=George Wettling's Dixielanders - After You've Gone
TTITLE18=Wilbur De Paris And New Orleans Band - Tres Moutarde
TTITLE19=Louis Armstrong And His All-Stars - New Orleans Function
EXTD=
EXTT0=
EXTT1=
EXTT2=
EXTT3=
EXTT4=
EXTT5=
EXTT6=
EXTT7=
EXTT8=
EXTT9=
EXTT10=
EXTT11=
EXTT12=
EXTT13=
EXTT14=
EXTT15=
EXTT16=
EXTT17=
EXTT18=
EXTT19=
PLAYORDER=
